<?xml version="1.0" standalone="no"?>
<!DOCTYPE svg PUBLIC "-//W3C//DTD SVG 20010904//EN"
 "http://www.w3.org/TR/2001/REC-SVG-20010904/DTD/svg10.dtd">
<svg version="1.0" xmlns="http://www.w3.org/2000/svg"
 width="96.000000pt" height="96.000000pt" viewBox="0 0 96.000000 96.000000"
 preserveAspectRatio="xMidYMid meet">
<metadata>
Created by potrace 1.14, written by Peter Selinger 2001-2017
</metadata>
<g transform="translate(0.000000,96.000000) scale(0.100000,-0.100000)"
fill="#000000" stroke="none">
<path d="M318 909 c-10 -10 -18 -23 -18 -29 0 -16 27 -12 34 5 6 17 86 22 86
5 0 -15 -73 -79 -90 -80 -8 0 -35 -20 -60 -45 -37 -36 -52 -44 -82 -45 -34 0
-38 -3 -38 -26 0 -15 12 -36 30 -53 17 -15 27 -30 24 -34 -12 -12 -43 -8 -51
7 -4 8 -19 16 -33 18 -22 3 -25 9 -28 46 -4 57 -32 60 -32 2 0 -27 -5 -42 -17
-49 -17 -9 -17 -10 0 -29 16 -17 16 -21 2 -32 -12 -10 -15 -36 -15 -126 0 -64
4 -115 10 -119 6 -3 10 -14 10 -24 0 -10 7 -24 15 -31 8 -7 15 -20 15 -29 0
-9 18 -35 41 -56 22 -22 47 -52 55 -68 8 -15 23 -27 33 -27 10 0 24 -7 31 -15
7 -8 20 -15 30 -15 10 0 23 -7 30 -15 8 -10 30 -15 62 -15 34 0 50 -4 54 -15
9 -21 119 -21 128 0 4 11 20 15 54 15 32 0 54 5 62 15 7 8 20 15 29 15 10 0
30 14 46 30 16 17 36 30 45 30 20 0 60 41 60 61 0 9 14 28 30 44 17 16 30 39
30 51 0 12 7 24 15 28 11 4 15 21 15 61 0 42 3 55 15 55 12 0 15 13 15 60 0
47 -3 60 -15 60 -12 0 -15 13 -15 55 0 40 -4 57 -15 61 -8 4 -15 17 -15 30 0
14 -7 27 -15 30 -8 4 -15 16 -15 28 0 15 -13 31 -41 49 -43 28 -72 29 -83 1
-8 -22 -26 -7 -26 21 0 13 -6 25 -12 27 -7 3 -13 15 -13 28 0 12 -7 26 -15 30
-8 4 -25 12 -37 18 -34 18 -130 15 -137 -3 -3 -10 -19 -15 -45 -15 -25 0 -41
5 -45 15 -8 22 -77 18 -98 -6z m126 -60 c-3 -5 -10 -7 -15 -3 -5 3 -7 10 -3
15 3 5 10 7 15 3 5 -3 7 -10 3 -15z m383 -106 c18 -21 33 -45 33 -54 0 -9 7
-22 15 -29 9 -8 15 -30 15 -60 0 -53 -9 -60 -85 -60 -64 0 -85 30 -85 120 0
61 3 76 23 96 30 33 46 30 84 -13z m-533 -104 c-3 -5 -10 -7 -15 -3 -5 3 -7
10 -3 15 3 5 10 7 15 3 5 -3 7 -10 3 -15z m49 -69 c20 0 39 -6 44 -14 4 -8 19
-16 33 -18 19 -2 26 -10 28 -30 3 -22 9 -28 27 -28 13 0 28 -6 32 -14 4 -8 19
-16 33 -18 29 -4 40 -36 17 -53 -9 -6 -17 -29 -19 -51 -2 -32 -7 -40 -26 -42
-29 -4 -62 -36 -62 -59 0 -24 -43 -63 -68 -63 -17 0 -21 -7 -24 -42 -4 -54
-22 -56 -26 -3 -2 22 -10 44 -18 48 -10 6 -14 28 -14 75 -1 62 -3 69 -30 92
-17 13 -30 34 -30 46 0 12 -7 24 -15 28 -9 3 -15 19 -15 41 0 22 6 38 15 41 8
4 15 15 15 26 0 11 10 31 23 44 19 20 24 21 33 9 6 -8 27 -15 47 -15z m577
-90 c0 -27 -3 -50 -7 -50 -5 0 -6 22 -5 50 5 65 12 65 12 0z m-30 -100 c0 -5
-5 -10 -11 -10 -5 0 -7 5 -4 10 3 6 8 10 11 10 2 0 4 -4 4 -10z"/>
</g>
</svg>
